<svg width="90" height="90" viewBox="0 0 90 90" fill="none" xmlns="http://www.w3.org/2000/svg">
<circle cx="45" cy="45" r="45" fill="#FA712E" fill-opacity="0.1"/>
<path fill-rule="evenodd" clip-rule="evenodd" d="M44.9792 36.6666C44.9792 40.125 42.2083 42.9166 38.75 42.9166C35.2917 42.9166 32.5 40.125 32.5 36.6666C32.5 33.2083 35.2917 30.4166 38.75 30.4166C42.2083 30.4166 44.9792 33.2083 44.9792 36.6666ZM59.5625 39.7916C59.5625 42.6666 57.25 45 54.375 45C51.5 45 49.1667 42.6666 49.1667 39.7916C49.1667 36.9166 51.5 34.5833 54.375 34.5833C57.25 34.5833 59.5625 36.9166 59.5625 39.7916ZM54.375 49.1666C50.5625 49.1666 42.9167 51.0833 42.9167 54.8958V57.5C42.9167 58.6458 43.8542 59.5833 45 59.5833H63.75C64.8958 59.5833 65.8333 58.6458 65.8333 57.5V54.8958C65.8333 51.0833 58.1875 49.1666 54.375 49.1666ZM24.1667 54.375C24.1667 49.5208 33.8958 47.0833 38.75 47.0833C40.125 47.0833 41.875 47.2916 43.6875 47.6666C39.4375 50.0208 38.75 53.125 38.75 54.8958V59.5833H26.25C25.1042 59.5833 24.1667 58.6458 24.1667 57.5V54.375Z" fill="#FA712E"/>
</svg>
