<svg width="88" height="23" viewBox="0 0 88 23" fill="none" xmlns="http://www.w3.org/2000/svg">
<path d="M7.05 22V0.879998H12.42V22H7.05ZM0.54 5.35V0.729998H18.93V5.35H0.54ZM47.265 22V0.729998H52.635V22H47.265ZM84.2951 22.33C83.4151 22.33 82.6951 22.04 82.1351 21.46C81.5751 20.88 81.2951 20.16 81.2951 19.3C81.2951 18.44 81.5751 17.72 82.1351 17.14C82.6951 16.56 83.4151 16.27 84.2951 16.27C85.1551 16.27 85.8651 16.56 86.4251 17.14C86.9851 17.72 87.2651 18.44 87.2651 19.3C87.2651 20.16 86.9851 20.88 86.4251 21.46C85.8651 22.04 85.1551 22.33 84.2951 22.33Z" fill="#FA712E"/>
<path d="M28.6324 13.39V9.55H32.6824C33.5624 9.55 34.2324 9.34 34.6924 8.92C35.1724 8.48 35.4124 7.89 35.4124 7.15C35.4124 6.43 35.1724 5.85 34.6924 5.41C34.2324 4.95 33.5624 4.72 32.6824 4.72H28.6324V0.729998H33.4324C34.8724 0.729998 36.1324 0.999999 37.2124 1.54C38.3124 2.08 39.1724 2.82 39.7924 3.76C40.4124 4.7 40.7224 5.8 40.7224 7.06C40.7224 8.32 40.4024 9.43 39.7624 10.39C39.1424 11.33 38.2724 12.07 37.1524 12.61C36.0324 13.13 34.7224 13.39 33.2224 13.39H28.6324ZM24.3724 22V0.729998H29.7424V22H24.3724ZM35.8924 22L29.7124 12.88L34.5424 11.71L42.1024 22H35.8924ZM63.6656 14.38V10.39H67.8656C68.3856 10.39 68.8556 10.29 69.2756 10.09C69.7156 9.87 70.0656 9.55 70.3256 9.13C70.5856 8.71 70.7156 8.19 70.7156 7.57C70.7156 6.95 70.5856 6.43 70.3256 6.01C70.0656 5.57 69.7156 5.25 69.2756 5.05C68.8556 4.83 68.3856 4.72 67.8656 4.72H63.6656V0.729998H68.7956C70.1556 0.729998 71.3856 1.01 72.4856 1.57C73.5856 2.11 74.4556 2.89 75.0956 3.91C75.7356 4.91 76.0556 6.13 76.0556 7.57C76.0556 8.97 75.7356 10.19 75.0956 11.23C74.4556 12.25 73.5856 13.03 72.4856 13.57C71.3856 14.11 70.1556 14.38 68.7956 14.38H63.6656ZM59.4056 22V0.729998H64.7756V22H59.4056Z" fill="#4489E4"/>
</svg>
