<svg width="180" height="37" viewBox="0 0 180 37" fill="none" xmlns="http://www.w3.org/2000/svg">
<g clip-path="url(#clip0_32_370)">
<path d="M18.0034 26.929L24.2214 30.6898C25.3601 31.379 26.7536 30.3602 26.4539 29.0716L24.8057 21.9995L30.3046 17.2349C31.3085 16.3658 30.7691 14.7177 29.4505 14.6128L22.2136 13.9985L19.3818 7.31599C18.8724 6.10235 17.1343 6.10235 16.6249 7.31599L13.7931 13.9835L6.55618 14.5978C5.23766 14.7027 4.69826 16.3509 5.70214 17.2199L11.201 21.9845L9.55282 29.0566C9.25316 30.3452 10.6466 31.364 11.7853 30.6748L18.0034 26.929Z" fill="#F9C459"/>
<path d="M125.883 26.929L132.101 30.6898C133.239 31.379 134.633 30.3602 134.333 29.0716L132.685 21.9995L138.184 17.2349C139.188 16.3658 138.648 14.7177 137.33 14.6128L130.093 13.9985L127.261 7.31599C126.752 6.10235 125.013 6.10235 124.504 7.31599L121.672 13.9835L114.435 14.5978C113.117 14.7027 112.577 16.3509 113.581 17.2199L119.08 21.9845L117.432 29.0566C117.132 30.3452 118.526 31.364 119.664 30.6748L125.883 26.929Z" fill="#F9C459"/>
<path d="M89.9228 26.929L96.1408 30.6898C97.2795 31.379 98.673 30.3602 98.3733 29.0716L96.7252 21.9995L102.224 17.2349C103.228 16.3658 102.688 14.7177 101.37 14.6128L94.1331 13.9985L91.3012 7.31599C90.7918 6.10235 89.0538 6.10235 88.5443 7.31599L85.7125 13.9835L78.4756 14.5978C77.1571 14.7027 76.6177 16.3509 77.6216 17.2199L83.1204 21.9845L81.4723 29.0566C81.1726 30.3452 82.566 31.364 83.7048 30.6748L89.9228 26.929Z" fill="#F9C459"/>
<path d="M53.9631 26.929L60.1811 30.6898C61.3198 31.379 62.7133 30.3602 62.4136 29.0716L60.7655 21.9995L66.2643 17.2349C67.2682 16.3658 66.7288 14.7177 65.4102 14.6128L58.1734 13.9985L55.3415 7.31599C54.8321 6.10235 53.094 6.10235 52.5846 7.31599L49.7528 13.9835L42.5159 14.5978C41.1974 14.7027 40.658 16.3509 41.6619 17.2199L47.1607 21.9845L45.5125 29.0566C45.2129 30.3452 46.6063 31.364 47.745 30.6748L53.9631 26.929Z" fill="#F9C459"/>
<path d="M161.842 26.929L168.06 30.6898C169.199 31.379 170.592 30.3602 170.293 29.0716L168.645 21.9995L174.143 17.2349C175.147 16.3658 174.608 14.7177 173.289 14.6128L166.053 13.9985L163.221 7.31599C162.711 6.10235 160.973 6.10235 160.464 7.31599L157.632 13.9835L150.395 14.5978C149.077 14.7027 148.537 16.3509 149.541 17.2199L155.04 21.9845L153.392 29.0566C153.092 30.3452 154.485 31.364 155.624 30.6748L161.842 26.929Z" fill="#F9C459"/>
</g>
<defs>
<clipPath id="clip0_32_370">
<rect x="0.0234985" y="0.678955" width="179.799" height="35.9597" rx="10" fill="white"/>
</clipPath>
</defs>
</svg>
