<svg width="90" height="90" viewBox="0 0 90 90" fill="none" xmlns="http://www.w3.org/2000/svg">
<circle cx="45" cy="45" r="45" fill="#FA712E" fill-opacity="0.1"/>
<path fill-rule="evenodd" clip-rule="evenodd" d="M45 24.1666C33.5 24.1666 24.1667 33.5 24.1667 45C24.1667 56.5 33.5 65.8333 45 65.8333C56.5 65.8333 65.8333 56.5 65.8333 45C65.8333 33.5 56.5 24.1666 45 24.1666ZM42.9167 61.5208C34.6875 60.5 28.3333 53.5 28.3333 45C28.3333 43.7083 28.5 42.4791 28.7708 41.2708L38.75 51.25V53.3333C38.75 55.625 40.625 57.5 42.9167 57.5V61.5208ZM53.3333 53.3333C55.2083 53.3333 56.75 54.5416 57.2917 56.2291C60 53.2708 61.6667 49.3333 61.6667 45C61.6667 38.0208 57.3542 32.0416 51.25 29.5625V30.4166C51.25 32.7083 49.375 34.5833 47.0833 34.5833H42.9167V38.75C42.9167 39.8958 41.9792 40.8333 40.8333 40.8333H36.6667V45H49.1667C50.3125 45 51.25 45.9375 51.25 47.0833V53.3333H53.3333Z" fill="#FA712E"/>
</svg>
